# xmcd
#
# Track frame offsets:
#	217
#	24937
#	45280
#	77937
#	102027
#	122300
#	148562
#	169175
#	192442
#	215612
#
# Disc length: 3218 seconds
#
# Revision: 1
# Processed by: cddbd v1.5.2PL0 Copyright (c) Steve Scherf et al.
# Submitted via: EasyCDDAExtractor 10.5.1.1
#
DISCID=7b0c900a
DTITLE=Carla Olson - Within An Ace
DYEAR=1993
DGENRE=Blues
TTITLE0=Justice
TTITLE1=Dark Horses
TTITLE2=Why Did You Stop
TTITLE3=World Of Pain
TTITLE4=Fortune
TTITLE5=Within An Ace
TTITLE6=Man Once Loved
TTITLE7=How Many Days
TTITLE8=Rescue Fantasy
TTITLE9=Is The Lady Gone
EXTD=ARD Demon Records FIENDCD 726
EXTT0=
EXTT1=
EXTT2=
EXTT3=
EXTT4=
EXTT5=
EXTT6=
EXTT7=
EXTT8=
EXTT9=
PLAYORDER=
